<svg id="Layer_1" data-name="Layer 1" xmlns="http://www.w3.org/2000/svg" viewBox="0 0 216.69 329.77"><path d="M405.44,250.57c0,10.37.36,20.77-.24,31.12-.79,13.67-9.76,25.83-24.07,29.24-1.06.25-1.74.13-2.16-1s-1-2.21-1.56-3.34a18.43,18.43,0,0,0,8.71-13.29,28.65,28.65,0,0,0-.94-11.85,24.57,24.57,0,0,1-1-9.71,14.78,14.78,0,0,1,7.58-11.17c1.57-.93,3.21-1.77,5-2.74-8.32-2.47-16.14-2.68-22.85,3.46-4.52,4.14-6.61,9.54-7.12,15.58A32.82,32.82,0,0,0,369,291.82a8.11,8.11,0,0,1,.26.84c-9-7.78-12.05-17-7.62-27.43,3.34-7.9,9-13.53,17.45-16a27.85,27.85,0,0,1,13.27-.4,15.77,15.77,0,0,0,12.34-2.39,5.38,5.38,0,0,1,.75-.36Z" transform="translate(-188.85 -246.12)" fill="#1d1d1b"/><path d="M190.74,250.57c0,10.37-.37,20.77.23,31.12.79,13.67,9.77,25.83,24.08,29.24,1.06.25,1.73.13,2.16-1s1-2.21,1.55-3.34a18.43,18.43,0,0,1-8.71-13.29,28.82,28.82,0,0,1,.94-11.85,24.38,24.38,0,0,0,1-9.71,14.77,14.77,0,0,0-7.57-11.17c-1.58-.93-3.21-1.77-5-2.74,8.31-2.47,16.14-2.68,22.85,3.46,4.51,4.14,6.61,9.54,7.11,15.58a32.69,32.69,0,0,1-2.24,14.93c-.09.22-.14.45-.26.84,9-7.78,12.05-17,7.63-27.43-3.35-7.9-9-13.53-17.46-16a27.85,27.85,0,0,0-13.27-.4,15.75,15.75,0,0,1-12.33-2.39,6.05,6.05,0,0,0-.75-.36C190.74,247.72,190.73,249.14,190.74,250.57Z" transform="translate(-188.85 -246.12)" fill="#1d1d1b"/><path d="M401,439.33c5.91,28.28,6.59,55.94-9.29,81.87.7-12.67-3.72-23.8-9.9-34.53a53.32,53.32,0,0,0,5.39.26,6.82,6.82,0,0,0,6.63-5.47c.48-3-1.39-4.55-4.28-3.75-5,1.38-9.53,0-13.67-2.78-5.66-3.84-9.71-9.11-12.9-15.1-.56-1.05-1.08-2.11-1.62-3.17l-.82.22c1.11,4.68,1.72,9.57,3.47,14a109.56,109.56,0,0,0,7.9,15.39c4.65,7.81,9.15,15.64,10.45,24.83,1.69,12,1.41,23.62-5.61,34.16-.36.54-.75,1.06-1.12,1.6a.8.8,0,0,1-.71.44c.53-3.28,1.3-6.54,1.55-9.85,1-12.68-3.88-32.05-19.74-40.08-7.54-3.83-15.38-4.19-23.33-2.22a83.94,83.94,0,0,0-12.87,4.59q-24.28,10.39-48.36-.3c-5.46-2.41-10.88-4.73-16.95-5.26-15.1-1.32-28,6.58-33.73,20.64-4.34,10.67-4.58,21.53-2.3,32.65a34.68,34.68,0,0,1-7.48-17.23,57.34,57.34,0,0,1,8.21-40.07c2.75-4.43,5.29-9,7.73-13.6a46.47,46.47,0,0,0,5.18-20l-1,1.92c-2.91,5.73-6.5,11-11.53,15-4.79,3.85-10.13,5.8-16.4,4.26-.86-.21-2.6.17-2.77.67a7.58,7.58,0,0,0-.39,4.6c1,2.85,3.63,3.81,6.47,3.9a50.19,50.19,0,0,0,5.46-.42,60.58,60.58,0,0,0-10.39,35.06c-1.44-2.59-3-5.11-4.29-7.77a88.56,88.56,0,0,1-8.62-38.32,155.13,155.13,0,0,1,3.59-34.23c.32-1.49.83-2.05,2.37-2,3.74.1,7.48,0,11,0,.75,3,1.09,5.87,2.19,8.4,1.21,2.75,3.82,3.87,6.86,3.62a6.69,6.69,0,0,1-4.61,6.91c-3.68.93-6.78-1.47-9.24-7.16-1.3,4.65,1.34,12.72,4.46,14.55a8.5,8.5,0,0,0,10.38-1.24,21,21,0,0,0,4.91-6.88,47.72,47.72,0,0,0,3.07-25.88,12.18,12.18,0,0,0-4.68-7.81c-6.13-4.73-13.52-2.11-15.1,5.44h-7c1.29-8.26,3.77-15.79,9.42-22.12,5.2-5.84,10.77-11.5,15.07-18,7-10.58,13.21-21.7,19.53-32.72,5-8.71,10-17.38,16.53-25.07a49.89,49.89,0,0,1,30.7-17.63c.13,0,.29.08.7.21q-1.55,8.81-3.09,17.71c-16.82,3.79-29.5,12.25-33.76,30.11,8.8-9.62,18.86-17.21,32.26-20.69-1.15,4.74-2.13,9-3.24,13.21-3.46,13.17-7.61,26.1-13.63,38.35-5.11,10.4-11.88,19.48-21.37,26.3a48.06,48.06,0,0,1-5.74,3.23c-2.66,1.42-3.7,3.56-2.74,5.76a4.55,4.55,0,0,0,6.42,2.13c4.41-2.51,8.61-5.38,13-8.15-1.82,2.86-3.65,5.71-5.44,8.59-4.51,7.24-7,15.11-6.4,23.67,1,13.71,8.25,23.9,19.47,31.19,20.76,13.47,48.26,12,67.82-3.23,15.11-11.78,19.43-31,10.67-48-1.75-3.4-3.84-6.62-5.77-9.93-.35-.59-.69-1.2-1.18-2.07,3.52,2.44,6.63,4.78,9.93,6.79a11.59,11.59,0,0,0,4.82,1.43c1.83.18,3.67-.77,3.91-2.62.19-1.49-.56-3.18-1.18-4.66-.27-.63-1.22-1.07-1.95-1.39-7.43-3.23-12.91-8.82-17.74-15-8.48-10.91-13.47-23.6-17.57-36.62-2.91-9.23-5.24-18.64-7.49-28.22,13,3.15,23.09,10.46,32.06,20.21a35.1,35.1,0,0,0-1-4.49c-3.39-9.57-10-16.37-19-20.68-4-1.92-8.39-3.07-12.57-4.62-.59-.22-1.42-.71-1.52-1.2-1.14-5.64-2.16-11.3-3.3-17.43,2.4.52,4.38.85,6.31,1.38,12.56,3.43,22.1,11.18,29.26,21.68a288.78,288.78,0,0,1,15.8,26.13c8.64,16.11,18.43,31.33,31.36,44.38,6,6.05,7.76,13.88,9.05,22.09h-6c-1.6-5.58-4.4-7.9-9.21-7.72A11.58,11.58,0,0,0,370,431.11c-1.42,9.66-1,19.27,3.55,28.16a17.74,17.74,0,0,0,5.44,6.09,7.72,7.72,0,0,0,12-3.76,40.71,40.71,0,0,0,1.8-10.61c-2.28,3.71-3.93,8-9.3,7.26-3.52-.49-4.5-3.53-5.58-6.69,8.07-.32,9.31-5.79,9.33-12.23Z" transform="translate(-188.85 -246.12)" fill="#1d1d1b"/><path d="M393.36,375.84c.12,4.32,0,8.64,0,12.68-.1-.25-.34-.86-.56-1.49-7.21-20.89-15.25-41.42-27.06-60.26-8.53-13.59-18.27-26-32-34.8-26.16-16.65-58.52-14.15-82.09,6.38-11.91,10.38-20.86,23.07-28.26,36.87a311.32,311.32,0,0,0-22.43,53.51,6.07,6.07,0,0,1-.24.59l-.53-.05c.32-6.71.37-13.45,1-20.13,2.62-27.36,15.49-50.07,32.47-70.88,8.83-10.82,19-19.95,31.87-25.75,28.88-13.07,61.25-7.46,84.89,15.2,16.14,15.46,28.68,33.58,36.47,54.67A105.38,105.38,0,0,1,393.36,375.84Z" transform="translate(-188.85 -246.12)" fill="#1d1d1b"/><path d="M383.19,387a8.27,8.27,0,0,1,.54,2.94c-1.08-1.38-2.15-2.76-3.24-4.13-8.2-10.26-13.73-22.14-20.44-33.31-5.32-8.85-10.67-17.79-17-25.92a54.83,54.83,0,0,0-37.72-21.37c-2.23-.28-2.2-1.66-2.43-3.16-.56-3.7-2.38-5.59-5.51-5.73-3.3-.15-5.4,1.45-6.09,4.71-.23,1.11-.32,2.25-.49,3.52-3.07.62-6.18,1.13-9.23,1.89-15.36,3.85-27,13.06-35.31,26.14s-15.74,26.82-23.77,40.14c-3.28,5.43-7.13,10.51-10.73,15.74a15.52,15.52,0,0,1-1.26,1.43l-.71-.42c3.39-9,6.59-18.15,10.24-27.09,6.27-15.36,13.75-30.1,24-43.25,8.9-11.42,19.29-21.07,33.27-26,20.08-7.06,38.51-3.44,55.42,9,11.44,8.42,19.92,19.46,27.14,31.5A228,228,0,0,1,383.19,387Z" transform="translate(-188.85 -246.12)" fill="#1d1d1b"/><path d="M380.67,431.24c1.83-.48,3.49.54,5,3.21a12.4,12.4,0,0,0-9.79,5.31C376,435.26,378,432,380.67,431.24Z" transform="translate(-188.85 -246.12)" fill="#1d1d1b"/><path d="M363.87,517.27c9.7,19.24-.51,47-20.48,55.07-4,1.61-8.46,2-12.78,3-5.05-1.09-9.94-1.9-14.7-3.2-13.53-3.71-26.93-3.19-40.29.69a41.66,41.66,0,0,1-18.13,1.42A30.68,30.68,0,0,1,238.26,564c-11.07-12.8-14.69-27.44-9.32-43.68,2.69-8.14,7.9-14.42,16.64-16.87,5.91-1.66,11.62-.62,17.21,1.5,6.31,2.39,12.43,5.61,18.95,7,14,3,27.82,2.31,41.14-3.74,4.49-2,9.16-4.1,14-5C349,501.05,358.25,506.1,363.87,517.27Zm-11.24,21c3.08-.26,4.9-2.36,4.44-5.25a11,11,0,0,0-5.67-8.42c-8.69-4.72-19.52-.47-23.59,9.25-.75,1.8-1.31,3.69-2.11,5.47-2.73,6.06-7.17,10-14.05,10q-15.91.12-31.81-.29a10.85,10.85,0,0,1-8.95-5.28,79.85,79.85,0,0,1-3.78-7.37,57.91,57.91,0,0,0-3.7-7.13,16.19,16.19,0,0,0-20.09-5.1c-3.89,1.93-6.4,5.94-6.15,9.8.18,2.71,1.64,4.17,4.34,4.25,2.2.07,4.41,0,6.61.09,6.83.2,12.4,5.19,13.62,12.74l-14.89-4.69c2,9.84,10.54,15.28,21.55,13.81a224.35,224.35,0,0,1,53.45-.43,51.89,51.89,0,0,0,12.39.06c6.53-.91,12.41-7.73,12.39-13.29l-14,4.33-.45-.78c.52-1.19,1-2.39,1.55-3.55,2.62-5.3,6.72-8.25,12.81-8.14A59.22,59.22,0,0,0,352.63,538.3Zm-37.81-8.65c4.26-2.4,6.95-6.49,9.48-10.74-18.34,6.66-36.28,7-54.62-.26,2,2.72,3.75,5.35,5.75,7.77a15.7,15.7,0,0,0,13.3,6c5.87-.19,11.77.19,17.62-.2A20.74,20.74,0,0,0,314.82,529.65Z" transform="translate(-188.85 -246.12)" fill="#1d1d1b"/><path d="M333.34,434.41c9.46,13.06,6.88,26-3.1,36.79-6.62,7.18-15.25,10.64-24.53,12.12-14.76,2.35-28.54-.58-40.08-10.51-10.23-8.8-15-22.5-6.16-35.87a211,211,0,0,0,20.83-39.46A238.53,238.53,0,0,0,292.42,353c1.63-9.05,2.7-18.2,4-27.3.14-.95.33-1.89.6-3.5,2,12.37,3.59,24.08,5.8,35.66,4.45,23.33,11.77,45.69,23.83,66.3C328.73,427.68,331,431.11,333.34,434.41Z" transform="translate(-188.85 -246.12)" fill="#1d1d1b"/><path d="M218.45,439l-.76.26a11.39,11.39,0,0,0-9.28-4.8,4.13,4.13,0,0,1,3.92-3.14,5.87,5.87,0,0,1,3.93,2.25C217.36,435.14,217.75,437.19,218.45,439Z" transform="translate(-188.85 -246.12)" fill="#1d1d1b"/><path d="M219.17,547.47a34.68,34.68,0,0,1-7.48-17.23,57.34,57.34,0,0,1,8.21-40.07c2.75-4.43,5.29-9,7.73-13.6a46.47,46.47,0,0,0,5.18-20l-1,1.92c-2.91,5.73-6.5,11-11.53,15-4.79,3.85-10.13,5.8-16.4,4.26-.86-.21-2.6.17-2.77.67a7.58,7.58,0,0,0-.39,4.6c1,2.85,3.63,3.81,6.47,3.9a50.19,50.19,0,0,0,5.46-.42,60.58,60.58,0,0,0-10.39,35.06c-1.44-2.59-3-5.11-4.29-7.77a88.56,88.56,0,0,1-8.62-38.32,155.13,155.13,0,0,1,3.59-34.23c.32-1.49.83-2.05,2.37-2,3.74.1,7.48,0,11,0,.75,3,1.09,5.87,2.19,8.4,1.21,2.75,3.82,3.87,6.86,3.62a6.69,6.69,0,0,1-4.61,6.91c-3.68.93-6.78-1.47-9.24-7.16-1.3,4.65,1.34,12.72,4.46,14.55a8.5,8.5,0,0,0,10.38-1.24,21,21,0,0,0,4.91-6.88,47.72,47.72,0,0,0,3.07-25.88,12.18,12.18,0,0,0-4.68-7.81c-6.13-4.73-13.52-2.11-15.1,5.44h-7c1.29-8.26,3.77-15.79,9.42-22.12,5.2-5.84,10.77-11.5,15.07-18,7-10.58,13.21-21.7,19.53-32.72,5-8.71,10-17.38,16.53-25.07a49.89,49.89,0,0,1,30.7-17.63c.13,0,.29.08.7.21q-1.55,8.81-3.09,17.71c-16.82,3.79-29.5,12.25-33.76,30.11,8.8-9.62,18.86-17.21,32.26-20.69-1.15,4.74-2.13,9-3.24,13.21-3.46,13.17-7.61,26.1-13.63,38.35-5.11,10.4-11.88,19.48-21.37,26.3a48.06,48.06,0,0,1-5.74,3.23c-2.66,1.42-3.7,3.56-2.74,5.76a4.55,4.55,0,0,0,6.42,2.13c4.41-2.51,8.61-5.38,13-8.15-1.82,2.86-3.65,5.71-5.44,8.59-4.51,7.24-7,15.11-6.4,23.67,1,13.71,8.25,23.9,19.47,31.19,20.76,13.47,48.26,12,67.82-3.23,15.11-11.78,19.43-31,10.67-48-1.75-3.4-3.84-6.62-5.77-9.93-.35-.59-.69-1.2-1.18-2.07,3.52,2.44,6.63,4.78,9.93,6.79a11.59,11.59,0,0,0,4.82,1.43c1.83.18,3.67-.77,3.91-2.62.19-1.49-.56-3.18-1.18-4.66-.27-.63-1.22-1.07-1.95-1.39-7.43-3.23-12.91-8.82-17.74-15-8.48-10.91-13.47-23.6-17.57-36.62-2.91-9.23-5.24-18.64-7.49-28.22,13,3.15,23.09,10.46,32.06,20.21a35.1,35.1,0,0,0-1-4.49c-3.39-9.57-10-16.37-19-20.68-4-1.92-8.39-3.07-12.57-4.62-.59-.22-1.42-.71-1.52-1.2-1.14-5.64-2.16-11.3-3.3-17.43,2.4.52,4.38.85,6.31,1.38,12.56,3.43,22.1,11.18,29.26,21.68a288.78,288.78,0,0,1,15.8,26.13c8.64,16.11,18.43,31.33,31.36,44.38,6,6.05,7.76,13.88,9.05,22.09h-6c-1.6-5.58-4.4-7.9-9.21-7.72A11.58,11.58,0,0,0,370,431.11c-1.42,9.66-1,19.27,3.55,28.16a17.74,17.74,0,0,0,5.44,6.09,7.72,7.72,0,0,0,12-3.76,40.71,40.71,0,0,0,1.8-10.61c-2.28,3.71-3.93,8-9.3,7.26-3.52-.49-4.5-3.53-5.58-6.69,8.07-.32,9.31-5.79,9.33-12.23H401c5.91,28.28,6.59,55.94-9.29,81.87.7-12.67-3.72-23.8-9.9-34.53a53.32,53.32,0,0,0,5.39.26,6.82,6.82,0,0,0,6.63-5.47c.48-3-1.39-4.55-4.28-3.75-5,1.38-9.53,0-13.67-2.78-5.66-3.84-9.71-9.11-12.9-15.1-.56-1.05-1.08-2.11-1.62-3.17l-.82.22c1.11,4.68,1.72,9.57,3.47,14a109.56,109.56,0,0,0,7.9,15.39c4.65,7.81,9.15,15.64,10.45,24.83,1.69,12,1.41,23.62-5.61,34.16-.36.54-.75,1.06-1.12,1.6a.8.8,0,0,1-.71.44c.53-3.28,1.3-6.54,1.55-9.85,1-12.68-3.88-32.05-19.74-40.08-7.54-3.83-15.38-4.19-23.33-2.22a83.94,83.94,0,0,0-12.87,4.59q-24.28,10.39-48.36-.3c-5.46-2.41-10.88-4.73-16.95-5.26-15.1-1.32-28,6.58-33.73,20.64C217.13,525.49,216.89,536.35,219.17,547.47Z" transform="translate(-188.85 -246.12)" fill="none" stroke="#1d1d1b" stroke-miterlimit="10"/><path d="M297,322.21c2,12.37,3.59,24.08,5.8,35.66,4.45,23.33,11.77,45.69,23.83,66.3,2.06,3.51,4.28,6.94,6.67,10.24,9.46,13.06,6.88,26-3.1,36.79-6.62,7.18-15.25,10.64-24.53,12.12-14.76,2.35-28.54-.58-40.08-10.51-10.23-8.8-15-22.5-6.16-35.87a211,211,0,0,0,20.83-39.46A238.53,238.53,0,0,0,292.42,353c1.63-9.05,2.7-18.2,4-27.3C296.58,324.76,296.77,323.82,297,322.21Z" transform="translate(-188.85 -246.12)" fill="none" stroke="#1d1d1b" stroke-miterlimit="10"/><path d="M330.61,575.37c-5.05-1.09-9.94-1.9-14.7-3.2-13.53-3.71-26.93-3.19-40.29.69a41.66,41.66,0,0,1-18.13,1.42A30.68,30.68,0,0,1,238.26,564c-11.07-12.8-14.69-27.44-9.32-43.68,2.69-8.14,7.9-14.42,16.64-16.87,5.91-1.66,11.62-.62,17.21,1.5,6.31,2.39,12.43,5.61,18.95,7,14,3,27.82,2.31,41.14-3.74,4.49-2,9.16-4.1,14-5,12.2-2.22,21.41,2.83,27,14,9.7,19.24-.51,47-20.48,55.07C339.4,574,334.93,574.38,330.61,575.37Z" transform="translate(-188.85 -246.12)" fill="none" stroke="#1d1d1b" stroke-miterlimit="10"/><path d="M332.61,550.9l-.45-.78c.52-1.19,1-2.39,1.55-3.55,2.62-5.3,6.72-8.25,12.81-8.14a59.22,59.22,0,0,0,6.11-.13c3.08-.26,4.9-2.36,4.44-5.25a11,11,0,0,0-5.67-8.42c-8.69-4.72-19.52-.47-23.59,9.25-.75,1.8-1.31,3.69-2.11,5.47-2.73,6.06-7.17,10-14.05,10q-15.91.12-31.81-.29a10.85,10.85,0,0,1-8.95-5.28,79.85,79.85,0,0,1-3.78-7.37,57.91,57.91,0,0,0-3.7-7.13,16.19,16.19,0,0,0-20.09-5.1c-3.89,1.93-6.4,5.94-6.15,9.8.18,2.71,1.64,4.17,4.34,4.25,2.2.07,4.41,0,6.61.09,6.83.2,12.4,5.19,13.62,12.74l-14.89-4.69c2,9.84,10.54,15.28,21.55,13.81a224.35,224.35,0,0,1,53.45-.43,51.89,51.89,0,0,0,12.39.06c6.53-.91,12.41-7.73,12.39-13.29Z" transform="translate(-188.85 -246.12)" fill="none" stroke="#1d1d1b" stroke-miterlimit="10"/><path d="M324.3,518.91c-18.34,6.66-36.28,7-54.62-.26,2,2.72,3.75,5.35,5.75,7.77a15.7,15.7,0,0,0,13.3,6c5.87-.19,11.77.19,17.62-.2a20.74,20.74,0,0,0,8.47-2.55C319.08,527.25,321.77,523.16,324.3,518.91Z" transform="translate(-188.85 -246.12)" fill="none" stroke="#1d1d1b" stroke-miterlimit="10"/><path d="M200.17,389.27c.32-6.71.37-13.45,1-20.13,2.62-27.36,15.49-50.07,32.47-70.88,8.83-10.82,19-19.95,31.87-25.75,28.88-13.07,61.25-7.46,84.89,15.2,16.14,15.46,28.68,33.58,36.47,54.67a105.38,105.38,0,0,1,6.48,33.46c.12,4.32,0,8.64,0,12.68-.1-.25-.34-.86-.56-1.49-7.21-20.89-15.25-41.42-27.06-60.26-8.53-13.59-18.27-26-32-34.8-26.16-16.65-58.52-14.15-82.09,6.38-11.91,10.38-20.86,23.07-28.26,36.87a311.32,311.32,0,0,0-22.43,53.51,6.07,6.07,0,0,1-.24.59Z" transform="translate(-188.85 -246.12)" fill="none" stroke="#1d1d1b" stroke-miterlimit="10"/><path d="M209.81,389.49c3.39-9,6.59-18.15,10.24-27.09,6.27-15.36,13.75-30.1,24-43.25,8.9-11.42,19.29-21.07,33.27-26,20.08-7.06,38.51-3.44,55.42,9,11.44,8.42,19.92,19.46,27.14,31.5A228,228,0,0,1,383.19,387a8.27,8.27,0,0,1,.54,2.94c-1.08-1.38-2.15-2.76-3.24-4.13-8.2-10.26-13.73-22.14-20.44-33.31-5.32-8.85-10.67-17.79-17-25.92a54.83,54.83,0,0,0-37.72-21.37c-2.23-.28-2.2-1.66-2.43-3.16-.56-3.7-2.38-5.59-5.51-5.73-3.3-.15-5.4,1.45-6.09,4.71-.23,1.11-.32,2.25-.49,3.52-3.07.62-6.18,1.13-9.23,1.89-15.36,3.85-27,13.06-35.31,26.14s-15.74,26.82-23.77,40.14c-3.28,5.43-7.13,10.51-10.73,15.74a15.52,15.52,0,0,1-1.26,1.43Z" transform="translate(-188.85 -246.12)" fill="none" stroke="#1d1d1b" stroke-miterlimit="10"/><path d="M385.71,434.45a12.4,12.4,0,0,0-9.79,5.31c.11-4.5,2.08-7.81,4.75-8.52C382.5,430.76,384.16,431.78,385.71,434.45Z" transform="translate(-188.85 -246.12)" fill="none" stroke="#1d1d1b" stroke-miterlimit="10"/><path d="M217.69,439.29a11.39,11.39,0,0,0-9.28-4.8,4.13,4.13,0,0,1,3.92-3.14,5.87,5.87,0,0,1,3.93,2.25c1.1,1.54,1.49,3.59,2.19,5.43Z" transform="translate(-188.85 -246.12)" fill="none" stroke="#1d1d1b" stroke-miterlimit="10"/></svg>